# xmcd
#
# Track frame offsets:
#       150
#       11520
#       24580
#       38480
#       58335
#       80205
#       93605
#       105100
#       120505
#       137625
#       149285
#       161810
#       182485
#       194325
#       209720
#       221345
#       229485
#       241895
#       256830
#       269610
#
# Disc length: 3746 seconds
#
# Revision: 1
# Processed by: cddbd v1.5.1PL0 Copyright (c) Steve Scherf et al.
# Submitted via: MusiCat 1.1
#
DISCID=200ea014
DTITLE=Casino de Sevilha - 20 preferidas
DYEAR=1900
DGENRE=
TTITLE0=España cañi
TTITLE1=Por la gracia de dios
TTITLE2=Mambo en Granada
TTITLE3=Ave Maria
TTITLE4=La virgem de la macarena
TTITLE5=La rodrigues
TTITLE6=Camino verde
TTITLE7=Claveres de España
TTITLE8=El beso
TTITLE9=No te puedo perdonar
TTITLE10=El imigrante
TTITLE11=Capricho Andaluz
TTITLE12=Ay papi
TTITLE13=Porque te quiero
TTITLE14=Mi secreto
TTITLE15=Caixinha de música
TTITLE16=Ay balance
TTITLE17=Siempre tu
TTITLE18=Que bonita es mi niña
TTITLE19=Opera flamenga
EXTD=\n\n
EXTT0=
EXTT1=
EXTT2=
EXTT3=
EXTT4=
EXTT5=
EXTT6=
EXTT7=
EXTT8=
EXTT9=
EXTT10=
EXTT11=
EXTT12=
EXTT13=
EXTT14=
EXTT15=
EXTT16=
EXTT17=
EXTT18=
EXTT19=
PLAYORDER=
